<svg width="27" height="37" viewBox="0 0 27 37" fill="none" xmlns="http://www.w3.org/2000/svg">
<path d="M12.9556 9.2644C13.6945 9.2644 14.2901 9.3796 14.9565 9.79468C15.5867 10.1872 16.2659 10.8397 17.2153 11.8474L19.1538 13.905L20.4087 12.6941L20.7993 12.3347C21.1853 11.9972 21.5566 11.7269 21.8979 11.5398C22.1254 11.4151 22.3544 11.3185 22.5767 11.2693C22.7969 11.2205 23.0437 11.2117 23.2788 11.3015C23.6869 11.4576 24.0321 11.7184 24.1968 12.1267C24.3576 12.5255 24.3039 12.9603 24.1479 13.3767C23.842 14.1934 23.049 15.1916 21.8677 16.3513L19.5581 18.6179L19.2163 18.9539L18.8667 18.6267L17.6978 17.532L17.3716 17.2263V18.2039C17.3715 19.4057 17.151 21.003 16.855 21.78C16.744 22.071 16.6978 22.242 16.6938 22.3855C16.6904 22.5087 16.7175 22.6483 16.8413 22.864C16.9726 23.0926 17.1991 23.3847 17.5776 23.8015C17.9531 24.215 18.4572 24.7291 19.1265 25.4021L19.9888 26.2585C20.753 27.0045 21.2408 27.432 21.6108 27.6599C21.842 27.8023 21.9917 27.8427 22.1069 27.8494C22.2267 27.8562 22.3645 27.8299 22.5864 27.7458C23.2732 27.4856 24.1208 27.534 24.7837 27.7341C25.1194 27.8355 25.4439 27.9866 25.6958 28.1902C25.942 28.3892 26.1811 28.693 26.1812 29.0945C26.1812 29.1961 26.153 29.2789 26.1372 29.3201C26.1186 29.3686 26.0965 29.4137 26.0757 29.4509C26.0338 29.5259 25.979 29.606 25.9204 29.6863C25.8019 29.8488 25.6377 30.0492 25.4438 30.2712C25.0543 30.7174 24.5214 31.2777 23.939 31.8474L21.8472 33.8933L21.4956 34.238L21.146 33.8914L16.8511 29.6287L12.9116 25.7185L10.189 28.4841C8.81233 29.8814 8.10167 30.6497 7.76904 31.1814C7.61105 31.434 7.56429 31.5945 7.55518 31.7136C7.54604 31.8332 7.57084 31.9667 7.65381 32.1804C7.94034 32.919 7.98147 33.7287 7.82471 34.3748C7.7464 34.6974 7.61166 35.0095 7.40283 35.2507C7.1873 35.4996 6.88127 35.6822 6.50342 35.6824C6.35953 35.6824 6.22964 35.6338 6.14795 35.5984C6.05423 35.5578 5.95617 35.5039 5.85889 35.4441C5.66314 35.3237 5.43354 35.157 5.18799 34.9617C4.69469 34.5692 4.10189 34.0341 3.52588 33.449L1.47314 31.364L1.12549 31.0115L1.47607 30.6599L5.59033 26.5398L9.35791 22.7664L6.87842 20.1931L4.05811 17.2664L3.72314 16.9187L4.05908 16.571L7.52295 12.9939C9.02104 11.4469 9.97327 10.5151 10.7358 9.97729C11.1264 9.70189 11.4828 9.51841 11.8521 9.40698C12.2209 9.29569 12.5775 9.26443 12.9556 9.2644ZM12.9312 0.534912C13.8711 0.53576 14.7668 0.950173 15.6255 1.68628C16.589 2.5125 17.0981 3.58218 17.0981 4.68042C17.0981 5.77866 16.589 6.84832 15.6255 7.67456C14.773 8.40537 13.8795 8.81933 12.9468 8.82788C12.0121 8.83633 11.1233 8.43734 10.2837 7.71753C8.34328 6.05406 8.31032 3.33594 10.2388 1.68237C11.0962 0.947326 11.991 0.534081 12.9312 0.534912Z" fill="#FFFEA3" stroke="#404040"/>
</svg>
