<svg width="62" height="49" viewBox="0 0 62 49" fill="none" xmlns="http://www.w3.org/2000/svg">
<ellipse cx="30.9417" cy="41.4158" rx="30.9417" ry="7.19605" fill="url(#paint0_radial_153_121)"/>
<path d="M30.9414 0.375977C39.392 0.375977 46.243 7.22618 46.2432 15.6768C46.2432 17.7576 45.4542 20.2336 44.1973 22.8428C42.9438 25.4448 41.2418 28.1456 39.4521 30.666C36.0926 35.3974 32.4433 39.4621 30.9404 41.0117C29.4222 39.4472 25.7725 35.3795 22.416 30.6504C20.629 28.1326 18.931 25.4357 17.6807 22.8369C16.4269 20.231 15.6406 17.7577 15.6406 15.6768C15.6407 7.22625 22.4909 0.376092 30.9414 0.375977Z" fill="url(#paint1_linear_153_121)" stroke="#717171" stroke-width="0.751353"/>
<path d="M30.9421 5.25928C36.343 5.25947 40.7449 9.48483 40.7449 14.7251C40.7448 19.9653 36.343 24.1898 30.9421 24.1899C25.5411 24.1899 21.1385 19.9654 21.1384 14.7251C21.1384 9.48471 25.5411 5.25928 30.9421 5.25928Z" fill="white" stroke="#717171" stroke-width="0.751353"/>
<defs>
<radialGradient id="paint0_radial_153_121" cx="0" cy="0" r="1" gradientUnits="userSpaceOnUse" gradientTransform="translate(30.9417 41.4158) scale(30.9417 7.19605)">
<stop stop-color="#FF8761"/>
<stop offset="1" stop-color="#F6FFD0" stop-opacity="0"/>
</radialGradient>
<linearGradient id="paint1_linear_153_121" x1="30.9416" y1="0" x2="30.9416" y2="41.5522" gradientUnits="userSpaceOnUse">
<stop stop-color="#FFFEA3"/>
<stop offset="1" stop-color="#FF8761"/>
</linearGradient>
</defs>
</svg>
